# Blender v2.79 (sub 7) OBJ File: ''
# www.blender.org
mtllib tree.mtl
o leaves
v -2.139359 5.141623 -1.242937
v -2.838110 5.291913 -1.574935
v -2.909726 5.292285 -1.170780
v -2.770343 5.079515 -0.785097
v -2.457309 5.029792 -0.521230
v -2.054504 5.212385 -0.449883
v -1.391638 5.280274 -0.460439
v -0.095293 4.776437 -0.293118
v -1.056599 5.296389 -1.178934
v -1.407704 5.240324 -1.836951
v -1.787232 5.062058 -1.958216
v -2.190041 5.107418 -2.029564
v -2.574687 5.308400 -1.889271
v -3.605034 4.715784 -1.946574
v -3.667824 4.404239 -0.621882
v -2.833201 4.697656 -0.481362
v -2.540895 4.501895 0.619130
v -1.960604 4.806503 -0.072024
v -1.470390 4.856300 0.276709
v -0.394569 4.100041 -0.444624
v -0.180622 4.099407 -1.243679
v -1.015765 4.854883 -1.883986
v -0.998677 4.557736 -2.688170
v -2.194935 4.745999 -2.360264
v -2.717860 5.192951 -2.659093
v -3.963031 4.007048 -2.131629
v -3.815055 3.528460 -0.591410
v -3.040447 3.562666 -0.392946
v -2.893320 3.831467 0.671435
v -1.878678 3.470265 0.151613
v -1.285402 3.352794 0.462753
v -0.580146 3.984592 -0.548517
v -0.109063 3.592187 -1.344913
v -0.778349 3.526125 -1.993803
v -1.171557 3.895963 -3.020900
v -2.149326 3.618526 -2.559900
v -2.775316 3.560712 -2.821141
v 0.057988 7.340870 -0.241555
v 0.068154 7.614405 -1.649494
v -0.653578 7.615039 -1.456759
v -1.182546 7.227808 -0.930197
v -1.377012 7.137314 -0.210899
v -1.184873 7.469636 0.508400
v -0.657607 7.593218 1.593662
v 0.063501 6.676224 3.860638
v 0.785232 7.622537 1.593662
v 1.600562 7.520479 0.508400
v 1.508665 7.196027 -0.210899
v 1.316527 7.278613 -0.930197
v 0.789260 7.644396 -1.456759
v 0.091273 6.565848 -3.200371
v -2.142074 5.998822 -2.285037
v -1.731895 6.532798 -0.800260
v -3.322304 6.176528 0.528353
v -1.735920 6.730947 0.953923
v -1.934094 6.821552 2.030751
v 0.083213 5.445148 3.250476
v 1.565804 5.444030 2.988769
v 1.979610 6.818979 1.118716
v 3.319241 6.278213 0.528353
v 1.858248 6.620831 -1.192639
v 1.948944 7.434275 -2.285037
v 0.121151 5.275948 -3.933227
v -2.305584 4.404911 -2.504455
v -2.037140 4.467167 -1.074097
v -3.679656 4.956381 -0.012732
v -2.041788 4.298973 1.261070
v -2.098685 4.085195 2.478990
v 0.111845 5.235064 2.864460
v 1.787822 4.520881 3.028939
v 2.343363 4.400658 1.425863
v 3.735117 5.073771 -0.012733
v 2.222628 4.568815 -1.270962
v 2.172043 4.463587 -2.504455
vt 0.237162 0.654665
vt 0.146484 0.697219
vt 0.137190 0.645416
vt 0.155278 0.595980
vt 0.195901 0.562158
vt 0.248174 0.553013
vt 0.334195 0.554366
vt 0.502424 0.532919
vt 0.377673 0.646461
vt 0.332110 0.730804
vt 0.282858 0.746347
vt 0.230585 0.755492
vt 0.180669 0.737510
vt 0.046959 0.744855
vt 0.038811 0.575060
vt 0.147121 0.557048
vt 0.185054 0.415990
vt 0.260360 0.504580
vt 0.323975 0.459880
vt 0.463586 0.552339
vt 0.491351 0.654760
vt 0.382973 0.736833
vt 0.385190 0.839911
vt 0.229950 0.797881
vt 0.162089 0.836184
vt 0.000500 0.768575
vt 0.019704 0.571154
vt 0.120227 0.545715
vt 0.139319 0.409285
vt 0.270991 0.475915
vt 0.347982 0.436034
vt 0.439504 0.565656
vt 0.500637 0.667736
vt 0.413783 0.750909
vt 0.362756 0.882559
vt 0.235869 0.823470
vt 0.154633 0.856955
vt 0.522315 0.526310
vt 0.523635 0.706776
vt 0.429974 0.682072
vt 0.361329 0.614578
vt 0.336093 0.522381
vt 0.361027 0.430183
vt 0.429451 0.291077
vt 0.523031 0.000499
vt 0.616691 0.291077
vt 0.722498 0.430183
vt 0.710572 0.522381
vt 0.685638 0.614578
vt 0.617214 0.682072
vt 0.526635 0.905563
vt 0.236810 0.788239
vt 0.290039 0.597924
vt 0.083650 0.427625
vt 0.289517 0.373077
vt 0.263800 0.235052
vt 0.525589 0.078711
vt 0.717987 0.112256
vt 0.771687 0.351954
vt 0.945533 0.427625
vt 0.755938 0.648217
vt 0.767708 0.788239
vt 0.530512 0.999501
vt 0.215591 0.816363
vt 0.250427 0.633023
vt 0.037275 0.496980
vt 0.249824 0.333708
vt 0.242441 0.177598
vt 0.529304 0.128189
vt 0.746799 0.107107
vt 0.818892 0.312585
vt 0.999500 0.496980
vt 0.803224 0.658257
vt 0.796660 0.816363
vn 0.1949 0.9803 0.0336
vn 0.2119 0.8861 0.4122
vn 0.0203 0.9866 0.1618
vn -0.4070 0.9126 -0.0379
vn -0.1028 0.9917 -0.0775
vn 0.3697 0.7876 -0.4929
vn -0.1471 0.7750 0.6146
vn -0.1410 0.9900 -0.0091
vn -0.3385 0.9023 -0.2670
vn 0.1207 0.9914 -0.0509
vn 0.4426 0.8942 -0.0674
vn 0.1330 0.9777 0.1627
vn -0.6387 0.7552 0.1473
vn -0.7944 0.5908 -0.1413
vn -0.3493 0.6900 0.6339
vn -0.6596 0.5314 0.5315
vn -0.8738 0.3826 0.3002
vn -0.1951 0.8954 0.4002
vn 0.0263 0.9064 0.4215
vn -0.3890 0.5779 0.7174
vn -0.5332 0.5071 0.6772
vn -0.0811 0.8677 0.4904
vn 0.6927 0.5907 0.4138
vn -0.1796 -0.1387 0.9739
vn 0.8689 -0.4367 0.2330
vn 0.7087 0.5430 -0.4504
vn 0.7580 0.5717 -0.3141
vn 0.6216 0.6796 -0.3896
vn 0.6643 0.7056 -0.2466
vn -0.1369 0.7397 -0.6589
vn -0.0365 0.8033 -0.5945
vn 0.2025 0.6596 -0.7238
vn 0.7057 0.4730 -0.5274
vn 0.3926 0.8960 -0.2074
vn -0.4966 0.8671 -0.0377
vn -0.4550 0.8238 -0.3381
vn -0.8937 0.3968 0.2092
vn -0.9862 0.1655 -0.0078
vn -0.2506 0.0757 0.9651
vn -0.2034 0.1129 0.9726
vn -0.9786 0.1856 0.0884
vn -0.8334 0.4618 0.3035
vn 0.4097 -0.1451 0.9006
vn 0.7211 0.1571 0.6747
vn -0.4420 0.1216 0.8887
vn -0.5814 0.0291 0.8131
vn 0.7547 0.1712 0.6333
vn 0.0130 -0.6804 0.7328
vn 0.2134 -0.8204 0.5305
vn 0.9625 0.0844 0.2577
vn 0.6645 0.2353 -0.7093
vn 0.6966 0.1818 -0.6940
vn 0.9377 0.1915 -0.2900
vn 0.9397 -0.3138 0.1359
vn -0.4816 0.4909 -0.7260
vn -0.2374 0.1600 -0.9581
vn 0.3651 0.1766 -0.9140
vn 0.5362 0.0647 -0.8416
vn -0.4700 0.1036 -0.8766
vn -0.6909 0.4882 -0.5333
vn 0.0518 0.9803 0.1908
vn -0.2841 0.8861 0.3663
vn -0.1381 0.9866 0.0868
vn -0.1377 0.9126 -0.3849
vn 0.0268 0.9917 -0.1259
vn 0.6030 0.7876 0.1268
vn -0.6192 0.7750 0.1264
vn -0.0513 0.9900 -0.1316
vn 0.0990 0.9023 -0.4196
vn 0.0971 0.9914 0.0879
vn 0.2481 0.8942 0.3727
vn -0.0913 0.9777 0.1893
vn -0.4035 0.7552 -0.5166
vn -0.2077 0.5908 -0.7796
vn -0.7222 0.6900 -0.0487
vn -0.7605 0.5313 -0.3732
vn -0.6413 0.3826 -0.6651
vn -0.4452 0.8954 -0.0077
vn -0.3710 0.9064 0.2019
vn -0.8146 0.5779 -0.0494
vn -0.8391 0.5071 -0.1971
vn -0.4787 0.8677 0.1338
vn -0.0823 0.5907 0.8027
vn -0.9586 -0.1387 0.2488
vn 0.1561 -0.4366 0.8860
vn 0.7077 0.5430 0.4520
vn 0.6050 0.5717 0.5542
vn 0.6158 0.6796 0.3987
vn 0.5042 0.7056 0.4979
vn 0.5393 0.7397 -0.4025
vn 0.5233 0.8033 -0.2843
vn 0.7416 0.6596 -0.1224
vn 0.7763 0.4730 0.4167
vn 0.3539 0.8960 0.2681
vn -0.1757 0.8671 -0.4660
vn 0.1142 0.8238 -0.5553
vn -0.5673 0.3968 -0.7216
vn -0.4097 0.1655 -0.8971
vn -0.9806 0.0757 0.1807
vn -0.9674 0.1129 0.2266
vn -0.4937 0.1856 -0.8496
vn -0.6273 0.4618 -0.6271
vn -0.6431 -0.1451 0.7519
vn -0.3067 0.1571 0.9387
vn -0.9923 0.1216 -0.0250
vn -0.9826 0.0291 -0.1833
vn -0.2550 0.1712 0.9517
vn -0.6586 -0.6804 0.3214
vn -0.3906 -0.8204 0.4175
vn 0.1733 0.0844 0.9813
vn 0.9237 0.2353 0.3024
vn 0.9234 0.1818 0.3380
vn 0.6591 0.1915 0.7273
vn 0.2740 -0.3138 0.9091
vn 0.4545 0.4909 -0.7433
vn 0.7680 0.1600 -0.6201
vn 0.9827 0.1766 -0.0554
vn 0.9894 0.0647 0.1303
vn 0.5958 0.1036 -0.7964
vn 0.1913 0.4882 -0.8515
usemtl leaves_color_LPTree1
s 1
f 1/1/1 2/2/1 3/3/1
f 1/1/2 3/3/2 4/4/2
f 1/1/3 4/4/3 5/5/3
f 1/1/4 5/5/4 6/6/4
f 1/1/5 6/6/5 7/7/5
f 1/1/6 7/7/6 8/8/6
f 1/1/7 8/8/7 9/9/7
f 1/1/8 9/9/8 10/10/8
f 1/1/9 10/10/9 11/11/9
f 1/1/10 11/11/10 12/12/10
f 1/1/11 12/12/11 13/13/11
f 1/1/12 13/13/12 2/2/12
f 2/2/13 14/14/13 15/15/13
f 2/2/14 15/15/14 3/3/14
f 3/3/15 15/15/15 16/16/15
f 3/3/16 16/16/16 4/4/16
f 4/4/17 16/16/17 17/17/17
f 4/4/18 17/17/18 5/5/18
f 5/5/19 17/17/19 18/18/19
f 5/5/20 18/18/20 6/6/20
f 6/6/21 18/18/21 19/19/21
f 6/6/22 19/19/22 7/7/22
f 7/7/23 19/19/23 20/20/23
f 7/7/24 20/20/24 8/8/24
f 8/8/25 20/20/25 21/21/25
f 8/8/26 21/21/26 9/9/26
f 9/9/27 21/21/27 22/22/27
f 9/9/28 22/22/28 10/10/28
f 10/10/29 22/22/29 23/23/29
f 10/10/30 23/23/30 11/11/30
f 11/11/31 23/23/31 24/24/31
f 11/11/32 24/24/32 12/12/32
f 12/12/33 24/24/33 25/25/33
f 12/12/34 25/25/34 13/13/34
f 13/13/35 25/25/35 14/14/35
f 13/13/36 14/14/36 2/2/36
f 14/14/37 26/26/37 27/27/37
f 14/14/38 27/27/38 15/15/38
f 15/15/39 27/27/39 28/28/39
f 15/15/40 28/28/40 16/16/40
f 16/16/41 28/28/41 29/29/41
f 16/16/42 29/29/42 17/17/42
f 17/17/43 29/29/43 30/30/43
f 17/17/44 30/30/44 18/18/44
f 18/18/45 30/30/45 31/31/45
f 18/18/46 31/31/46 19/19/46
f 19/19/47 31/31/47 32/32/47
f 19/19/48 32/32/48 20/20/48
f 20/20/49 32/32/49 33/33/49
f 20/20/50 33/33/50 21/21/50
f 21/21/51 33/33/51 34/34/51
f 21/21/52 34/34/52 22/22/52
f 22/22/53 34/34/53 35/35/53
f 22/22/54 35/35/54 23/23/54
f 23/23/55 35/35/55 36/36/55
f 23/23/56 36/36/56 24/24/56
f 24/24/57 36/36/57 37/37/57
f 24/24/58 37/37/58 25/25/58
f 25/25/59 37/37/59 26/26/59
f 25/25/60 26/26/60 14/14/60
f 38/38/61 39/39/61 40/40/61
f 38/38/62 40/40/62 41/41/62
f 38/38/63 41/41/63 42/42/63
f 38/38/64 42/42/64 43/43/64
f 38/38/65 43/43/65 44/44/65
f 38/38/66 44/44/66 45/45/66
f 38/38/67 45/45/67 46/46/67
f 38/38/68 46/46/68 47/47/68
f 38/38/69 47/47/69 48/48/69
f 38/38/70 48/48/70 49/49/70
f 38/38/71 49/49/71 50/50/71
f 38/38/72 50/50/72 39/39/72
f 39/39/73 51/51/73 52/52/73
f 39/39/74 52/52/74 40/40/74
f 40/40/75 52/52/75 53/53/75
f 40/40/76 53/53/76 41/41/76
f 41/41/77 53/53/77 54/54/77
f 41/41/78 54/54/78 42/42/78
f 42/42/79 54/54/79 55/55/79
f 42/42/80 55/55/80 43/43/80
f 43/43/81 55/55/81 56/56/81
f 43/43/82 56/56/82 44/44/82
f 44/44/83 56/56/83 57/57/83
f 44/44/84 57/57/84 45/45/84
f 45/45/85 57/57/85 58/58/85
f 45/45/86 58/58/86 46/46/86
f 46/46/87 58/58/87 59/59/87
f 46/46/88 59/59/88 47/47/88
f 47/47/89 59/59/89 60/60/89
f 47/47/90 60/60/90 48/48/90
f 48/48/91 60/60/91 61/61/91
f 48/48/92 61/61/92 49/49/92
f 49/49/93 61/61/93 62/62/93
f 49/49/94 62/62/94 50/50/94
f 50/50/95 62/62/95 51/51/95
f 50/50/96 51/51/96 39/39/96
f 51/51/97 63/63/97 64/64/97
f 51/51/98 64/64/98 52/52/98
f 52/52/99 64/64/99 65/65/99
f 52/52/100 65/65/100 53/53/100
f 53/53/101 65/65/101 66/66/101
f 53/53/102 66/66/102 54/54/102
f 54/54/103 66/66/103 67/67/103
f 54/54/104 67/67/104 55/55/104
f 55/55/105 67/67/105 68/68/105
f 55/55/106 68/68/106 56/56/106
f 56/56/107 68/68/107 69/69/107
f 56/56/108 69/69/108 57/57/108
f 57/57/109 69/69/109 70/70/109
f 57/57/110 70/70/110 58/58/110
f 58/58/111 70/70/111 71/71/111
f 58/58/112 71/71/112 59/59/112
f 59/59/113 71/71/113 72/72/113
f 59/59/114 72/72/114 60/60/114
f 60/60/115 72/72/115 73/73/115
f 60/60/116 73/73/116 61/61/116
f 61/61/117 73/73/117 74/74/117
f 61/61/118 74/74/118 62/62/118
f 62/62/119 74/74/119 63/63/119
f 62/62/120 63/63/120 51/51/120
o trunks
v 0.260259 0.000000 -0.152067
v 0.032704 2.013924 -0.465270
v 0.260259 2.013924 -0.152067
v 0.032704 0.000000 -0.465271
v -0.335488 2.013924 -0.345637
v -0.335488 0.000000 -0.345637
v -0.335488 2.013924 0.041503
v -0.335488 -0.000000 0.041503
v 0.032704 2.013924 0.161136
v 0.032704 -0.000000 0.161136
v -0.001218 3.257421 -0.677597
v 0.150485 3.257421 -0.468795
v -0.246679 3.257421 -0.597841
v -0.246679 3.257421 -0.339747
v -0.001218 3.257421 -0.259992
v -0.013904 4.344593 -0.516299
v 0.109432 4.344593 -0.346542
v -0.213466 4.344593 -0.451457
v -0.213466 4.344593 -0.241626
v -0.013904 4.344593 -0.176784
v 0.445232 5.930671 -0.637064
v 0.496619 5.930671 -0.566332
v 0.362080 5.930671 -0.610046
v 0.362080 5.930671 -0.522614
v 0.445232 5.930671 -0.495600
v 0.434280 7.283947 -0.511979
v 0.461186 7.283947 -0.474946
v 0.390745 7.283947 -0.497834
v 0.390745 7.283947 -0.452057
v 0.434280 7.283947 -0.437913
v -0.251234 1.083405 0.009352
v -1.110508 2.623090 -0.684039
v -1.273738 2.520894 -0.644898
v -0.033964 1.219434 -0.042746
v -1.057346 2.584054 -0.869157
v 0.036800 1.167476 -0.289155
v -1.187719 2.457735 -0.944429
v -0.136737 0.999334 -0.389346
v -1.321458 2.418698 -0.805830
v -0.314752 0.947376 -0.204859
v -1.631709 3.729078 -1.014239
v -1.714799 3.677056 -0.994312
v -1.604647 3.709207 -1.108471
v -1.671011 3.644906 -1.146788
v -1.739091 3.625035 -1.076235
v -2.335929 4.460303 -1.434244
v -2.382284 4.431283 -1.423131
v -2.320833 4.449225 -1.486813
v -2.357855 4.413341 -1.508191
v -2.395836 4.402262 -1.468830
v 0.153452 2.781900 -0.297322
v -0.017404 4.321578 0.793528
v 0.098106 4.219370 0.915319
v -0.000301 2.917928 -0.459436
v -0.204303 4.282560 0.840047
v -0.249080 2.865967 -0.397515
v -0.204303 4.156218 0.990587
v -0.249080 2.697828 -0.197131
v -0.017404 4.117200 1.037106
v -0.000301 2.645870 -0.135209
v -0.042766 5.427579 1.409999
v 0.016034 5.375543 1.471994
v -0.137906 5.407698 1.433678
v -0.137906 5.343389 1.510311
v -0.042766 5.323545 1.533990
v -0.054392 6.158809 2.229876
v -0.021590 6.129788 2.264463
v -0.107467 6.147730 2.243089
v -0.107467 6.111846 2.285837
v -0.054392 6.100767 2.299049
vt 0.356340 0.000500
vt 0.274157 0.276711
vt 0.356340 0.276711
vt 0.274157 0.000500
vt 0.305548 0.276711
vt 0.305548 0.000500
vt 0.407132 0.276711
vt 0.407131 0.000500
vt 0.438523 0.276711
vt 0.438523 0.000500
vt 0.218443 0.447258
vt 0.273232 0.447258
vt 0.239371 0.447258
vt 0.307093 0.447258
vt 0.328021 0.447258
vt 0.260767 0.596364
vt 0.305310 0.596364
vt 0.277781 0.596364
vt 0.332840 0.596364
vt 0.349854 0.596364
vt 0.229079 0.813898
vt 0.247639 0.813898
vt 0.236168 0.813898
vt 0.259109 0.813898
vt 0.266199 0.813898
vt 0.261901 0.999501
vt 0.271618 0.999501
vt 0.265612 0.999501
vt 0.277623 0.999501
vt 0.281335 0.999501
vt 0.398695 0.149090
vt 0.216753 0.360259
vt 0.227023 0.346243
vt 0.385025 0.167746
vt 0.168178 0.354905
vt 0.320368 0.160620
vt 0.148428 0.337581
vt 0.294079 0.137559
vt 0.184796 0.332227
vt 0.342487 0.130433
vt 0.130110 0.511947
vt 0.135338 0.504812
vt 0.105384 0.509221
vt 0.095330 0.500402
vt 0.113843 0.497677
vt 0.019902 0.612236
vt 0.022819 0.608256
vt 0.006108 0.610716
vt 0.000500 0.605796
vt 0.010827 0.604276
vt 0.318225 0.382040
vt 0.604459 0.593209
vt 0.636416 0.579193
vt 0.275688 0.400696
vt 0.616666 0.587856
vt 0.291936 0.393570
vt 0.656167 0.570531
vt 0.344515 0.370510
vt 0.668373 0.565177
vt 0.360763 0.363383
vt 0.766218 0.744897
vt 0.782486 0.737762
vt 0.772432 0.742172
vt 0.792540 0.733353
vt 0.798753 0.730627
vt 0.981350 0.845186
vt 0.990425 0.841206
vt 0.984817 0.843666
vt 0.996034 0.838746
vt 0.999501 0.837226
vn 0.8090 0.0000 -0.5878
vn -0.3090 0.0000 -0.9511
vn -1.0000 0.0000 0.0000
vn -0.3090 -0.0000 0.9511
vn 0.8090 -0.0000 0.5878
vn 0.8065 -0.0781 -0.5860
vn -0.3046 -0.1684 -0.9375
vn -0.9975 0.0712 0.0000
vn -0.2949 0.2993 0.9075
vn 0.7899 0.2159 0.5739
vn 0.8053 0.0962 -0.5851
vn -0.3061 0.1362 -0.9422
vn -0.9995 0.0305 0.0000
vn -0.3081 -0.0762 0.9483
vn 0.8085 -0.0355 0.5874
vn 0.7793 -0.2687 -0.5662
vn -0.3090 0.0170 -0.9509
vn -0.9400 0.3411 0.0000
vn -0.2975 0.2702 0.9157
vn 0.8036 -0.1153 0.5839
vn 0.8036 -0.1153 0.5838
vn 0.8075 0.0608 -0.5867
vn -0.3079 0.0851 -0.9476
vn -0.9998 0.0212 0.0000
vn -0.3087 -0.0430 0.9502
vn 0.8089 -0.0185 0.5877
vn -0.0287 0.3971 0.9173
vn 0.7705 0.6313 0.0882
vn 0.4866 0.0182 -0.8734
vn -0.4882 -0.5949 -0.6386
vn -0.8066 -0.3607 0.4682
vn 0.0389 0.3026 0.9523
vn 0.8751 0.4586 0.1546
vn 0.4696 0.0409 -0.8819
vn 0.4696 0.0408 -0.8819
vn -0.6147 -0.3691 -0.6971
vn -0.8894 -0.2178 0.4020
vn -0.0667 0.4479 0.8916
vn -0.0666 0.4479 0.8916
vn 0.7039 0.7083 0.0529
vn 0.7040 0.7083 0.0528
vn 0.4842 0.0215 -0.8747
vn 0.4842 0.0214 -0.8747
vn -0.4312 -0.6697 -0.6046
vn -0.4311 -0.6697 -0.6046
vn -0.7727 -0.4067 0.4874
vn 0.8088 0.3971 -0.4338
vn -0.3089 0.6313 -0.7114
vn -0.9997 0.0182 0.0153
vn -0.3089 -0.5949 0.7421
vn 0.8088 -0.3607 0.4645
vn 0.8053 0.3026 -0.5098
vn -0.3037 0.4585 -0.8352
vn -0.3036 0.4586 -0.8352
vn -0.9986 0.0408 0.0343
vn -0.2962 -0.3691 0.8809
vn -0.2963 -0.3691 0.8809
vn 0.7928 -0.2178 0.5692
vn 0.8055 0.4479 -0.3881
vn 0.8055 0.4479 -0.3880
vn -0.3062 0.7083 -0.6361
vn -0.3063 0.7083 -0.6360
vn -0.9996 0.0214 0.0180
vn -0.3080 -0.6697 0.6757
vn -0.3079 -0.6698 0.6757
vn 0.8084 -0.4067 0.4255
vn 0.8084 -0.4068 0.4255
usemtl trunks_color_LPTree1
s 1
f 75/75/121 76/76/121 77/77/121
f 75/75/121 78/78/121 76/76/121
f 78/78/122 79/79/122 76/76/122
f 78/78/122 80/80/122 79/79/122
f 80/80/123 81/81/123 79/79/123
f 80/80/123 82/82/123 81/81/123
f 82/82/124 83/83/124 81/81/124
f 82/82/124 84/84/124 83/83/124
f 84/84/125 77/77/125 83/83/125
f 84/84/125 75/75/125 77/77/125
f 85/85/126 86/86/126 77/77/126
f 77/77/126 76/76/126 85/85/126
f 87/87/127 85/85/127 76/76/127
f 76/76/127 79/79/127 87/87/127
f 88/88/128 87/87/128 79/79/128
f 79/79/128 81/81/128 88/88/128
f 89/89/129 88/88/129 81/81/129
f 81/81/129 83/83/129 89/89/129
f 86/86/130 89/89/130 83/83/130
f 83/83/130 77/77/130 86/86/130
f 90/90/131 91/91/131 86/86/131
f 86/86/131 85/85/131 90/90/131
f 92/92/132 90/90/132 85/85/132
f 85/85/132 87/87/132 92/92/132
f 93/93/133 92/92/133 87/87/133
f 87/87/133 88/88/133 93/93/133
f 94/94/134 93/93/134 88/88/134
f 88/88/134 89/89/134 94/94/134
f 91/91/135 94/94/135 89/89/135
f 89/89/135 86/86/135 91/91/135
f 95/95/136 96/96/136 91/91/136
f 91/91/136 90/90/136 95/95/136
f 97/97/137 95/95/137 90/90/137
f 90/90/137 92/92/137 97/97/137
f 98/98/138 97/97/138 92/92/138
f 92/92/138 93/93/138 98/98/138
f 99/99/139 98/98/139 93/93/139
f 93/93/139 94/94/139 99/99/139
f 96/96/140 99/99/141 94/94/140
f 94/94/140 91/91/140 96/96/140
f 100/100/142 101/101/142 96/96/142
f 96/96/142 95/95/142 100/100/142
f 102/102/143 100/100/143 95/95/143
f 95/95/143 97/97/143 102/102/143
f 103/103/144 102/102/144 97/97/144
f 97/97/144 98/98/144 103/103/144
f 104/104/145 103/103/145 98/98/145
f 98/98/145 99/99/145 104/104/145
f 101/101/146 104/104/146 99/99/146
f 99/99/146 96/96/146 101/101/146
f 105/105/147 106/106/147 107/107/147
f 105/105/147 108/108/147 106/106/147
f 108/108/148 109/109/148 106/106/148
f 108/108/148 110/110/148 109/109/148
f 110/110/149 111/111/149 109/109/149
f 110/110/149 112/112/149 111/111/149
f 112/112/150 113/113/150 111/111/150
f 112/112/150 114/114/150 113/113/150
f 114/114/151 107/107/151 113/113/151
f 114/114/151 105/105/151 107/107/151
f 115/115/152 116/116/152 107/107/152
f 107/107/152 106/106/152 115/115/152
f 117/117/153 115/115/153 106/106/153
f 106/106/153 109/109/153 117/117/153
f 118/118/154 117/117/154 109/109/155
f 109/109/155 111/111/155 118/118/154
f 119/119/156 118/118/156 111/111/156
f 111/111/156 113/113/156 119/119/156
f 116/116/157 119/119/157 113/113/157
f 113/113/157 107/107/157 116/116/157
f 120/120/158 121/121/158 116/116/159
f 116/116/159 115/115/159 120/120/158
f 122/122/160 120/120/160 115/115/161
f 115/115/161 117/117/161 122/122/160
f 123/123/162 122/122/162 117/117/163
f 117/117/163 118/118/163 123/123/162
f 124/124/164 123/123/164 118/118/165
f 118/118/165 119/119/165 124/124/164
f 121/121/166 124/124/166 119/119/166
f 119/119/166 116/116/166 121/121/166
f 125/125/167 126/126/167 127/127/167
f 125/125/167 128/128/167 126/126/167
f 128/128/168 129/129/168 126/126/168
f 128/128/168 130/130/168 129/129/168
f 130/130/169 131/131/169 129/129/169
f 130/130/169 132/132/169 131/131/169
f 132/132/170 133/133/170 131/131/170
f 132/132/170 134/134/170 133/133/170
f 134/134/171 127/127/171 133/133/171
f 134/134/171 125/125/171 127/127/171
f 135/135/172 136/136/172 127/127/172
f 127/127/172 126/126/172 135/135/172
f 137/137/173 135/135/173 126/126/174
f 126/126/174 129/129/174 137/137/173
f 138/138/175 137/137/175 129/129/175
f 129/129/175 131/131/175 138/138/175
f 139/139/176 138/138/176 131/131/177
f 131/131/177 133/133/177 139/139/176
f 136/136/178 139/139/178 133/133/178
f 133/133/178 127/127/178 136/136/178
f 140/140/179 141/141/179 136/136/180
f 136/136/180 135/135/180 140/140/179
f 142/142/181 140/140/181 135/135/182
f 135/135/182 137/137/182 142/142/181
f 143/143/183 142/142/183 137/137/183
f 137/137/183 138/138/183 143/143/183
f 144/144/184 143/143/184 138/138/185
f 138/138/185 139/139/185 144/144/184
f 141/141/186 144/144/186 139/139/187
f 139/139/187 136/136/187 141/141/186
